General
Unique ID                                : 218994341214200171914414106378622570873 (0xA4C0C6A3F9E8DA45B887BA30FCED9179)
Complete name                            : Versailles - MASQUERADE (TERU ver.) [NTSC DVD 480p PCM MPEG-2 REMUX-SEKAI].mkv
Format                                   : Matroska
Format version                           : Version 4
File size                                : 436 MiB
Duration                                 : 6 min 15 s
Overall bit rate mode                    : Constant
Overall bit rate                         : 9 738 kb/s
Frame rate                               : 29.970 FPS
Title                                    : Versailles - MASQUERADE (TERU ver.) [NTSC DVD 480p PCM MPEG-2 REMUX-SEKAI]
Encoded date                             : 2025-08-21 11:38:50 UTC
Writing application                      : mkvmerge 94.0 ('Initiate') 64-bit
Writing library                          : libebml v1.4.5 + libmatroska v1.7.1
Website                                  : https://sekai-archivist.blogspot.com/

Video
ID                                       : 1
ID in the original source medium         : 224 (0xE0)
Format                                   : MPEG Video
Format version                           : Version 2
Format profile                           : Main@Main
Format settings                          : BVOP
Format settings, BVOP                    : Yes
Format settings, Matrix                  : Default
Format settings, GOP                     : M=2, N=13
Format settings, picture structure       : Frame
Codec ID                                 : V_MPEG2
Codec ID/Info                            : MPEG 1 or 2 Video
Duration                                 : 6 min 15 s
Bit rate mode                            : Constant
Bit rate                                 : 8 200 kb/s
Width                                    : 720 pixels
Height                                   : 480 pixels
Display aspect ratio                     : 16:9
Original display aspect ratio            : 2.39:1
Frame rate mode                          : Constant
Frame rate                               : 29.970 (30000/1001) FPS
Standard                                 : NTSC
Color space                              : YUV
Chroma subsampling                       : 4:2:0
Bit depth                                : 8 bits
Scan type                                : Interlaced
Scan order                               : Top Field First
Compression mode                         : Lossy
Bits/(Pixel*Frame)                       : 0.792
Time code of first frame                 : 01:23:59:15
Time code source                         : Group of pictures header
GOP, Open/Closed                         : Open
Stream size                              : 367 MiB (84%)
Language                                 : Japanese
Default                                  : Yes
Forced                                   : No
Color primaries                          : BT.601 NTSC
Transfer characteristics                 : BT.601
Matrix coefficients                      : BT.601
Original source medium                   : DVD-Video

Audio
ID                                       : 2
ID in the original source medium         : 189 (0xBD)160 (0xA0)
Format                                   : PCM
Format settings                          : Little / Signed
Codec ID                                 : A_PCM/INT/LIT
Duration                                 : 6 min 15 s
Bit rate mode                            : Constant
Bit rate                                 : 1 536 kb/s
Channel(s)                               : 2 channels
Sampling rate                            : 48.0 kHz
Frame rate                               : 30.000 FPS (1600 SPF)
Bit depth                                : 16 bits
Delay relative to video                  : 19 ms
Stream size                              : 68.8 MiB (16%)
Language                                 : Japanese
Default                                  : Yes
Forced                                   : No
Original source medium                   : DVD-Video


